<?xml version="1.0" encoding="UTF-8" standalone="no"?>
<!-- Created with Inkscape (http://www.inkscape.org/) -->

<svg
   xmlns:dc="http://purl.org/dc/elements/1.1/"
   xmlns:cc="http://creativecommons.org/ns#"
   xmlns:rdf="http://www.w3.org/1999/02/22-rdf-syntax-ns#"
   xmlns:svg="http://www.w3.org/2000/svg"
   xmlns="http://www.w3.org/2000/svg"
   xmlns:sodipodi="http://sodipodi.sourceforge.net/DTD/sodipodi-0.dtd"
   xmlns:inkscape="http://www.inkscape.org/namespaces/inkscape"
   width="744.09448819"
   height="1052.3622047"
   id="svg2"
   version="1.1"
   inkscape:version="0.48.0 r9654"
   sodipodi:docname="New document 1">
  <defs
     id="defs4" />
  <sodipodi:namedview
     id="base"
     pagecolor="#ffffff"
     bordercolor="#666666"
     borderopacity="1.0"
     inkscape:pageopacity="0.0"
     inkscape:pageshadow="2"
     inkscape:zoom="3.959798"
     inkscape:cx="246.94519"
     inkscape:cy="664.97502"
     inkscape:document-units="px"
     inkscape:current-layer="layer1"
     showgrid="false"
     inkscape:window-width="1366"
     inkscape:window-height="706"
     inkscape:window-x="-8"
     inkscape:window-y="-8"
     inkscape:window-maximized="1" />
  <metadata
     id="metadata7">
    <rdf:RDF>
      <cc:Work
         rdf:about="">
        <dc:format>image/svg+xml</dc:format>
        <dc:type
           rdf:resource="http://purl.org/dc/dcmitype/StillImage" />
        <dc:title></dc:title>
      </cc:Work>
    </rdf:RDF>
  </metadata>
  <g
     inkscape:label="Layer 1"
     inkscape:groupmode="layer"
     id="layer1">
    <g
       id="g3037"
       transform="matrix(0.25358077,0,0,0.25358077,97.760075,300.75893)">
      <path
         sodipodi:open="true"
         sodipodi:end="6.2716513"
         sodipodi:start="0"
         d="m 315.71429,321.64789 c 0,44.57727 -36.77661,80.71428 -82.14286,80.71428 -45.36625,0 -82.14286,-36.13701 -82.14286,-80.71428 0,-44.57727 36.77661,-80.71429 82.14286,-80.71429 44.99669,0 81.61841,35.57215 82.13739,79.78335"
         sodipodi:ry="80.714287"
         sodipodi:rx="82.14286"
         sodipodi:cy="321.64789"
         sodipodi:cx="233.57143"
         id="path2993"
         style="opacity:0.98000004;fill:#0000ff;fill-opacity:1;stroke:#000000;stroke-width:1.14699996;stroke-miterlimit:4;stroke-opacity:1;stroke-dasharray:none;stroke-dashoffset:0"
         sodipodi:type="arc" />
      <path
         sodipodi:nodetypes="ccccsscsscccccsc"
         inkscape:connector-curvature="0"
         id="path2995"
         d="M 185.71429,295.21933 180,359.50504 l -15.71429,-1.42857 -2.85714,-44.28572 c 0,0 -8.61211,13.6643 -14.28571,11.42858 C 128.785,317.98529 127.41368,282.92202 138.57143,266.6479 144.64649,257.78713 170,259.50504 170,259.50504 c 0,0 4.94983,-29.80386 15.71429,-38.57143 30.41512,-24.77289 77.19374,-28.84094 115.71428,-21.42857 31.52481,6.0662 81.42857,51.42857 81.42857,51.42857 l -40,-4.28571 25.71429,42.85714 -47.14286,-12.85714 25.71429,52.85714 c 0,0 -57.6174,-77.69539 -100,-78.57143 -25.2372,-0.52165 -61.42857,44.28572 -61.42857,44.28572 z"
         style="fill:#000000;stroke:#000000;stroke-width:1px;stroke-linecap:butt;stroke-linejoin:miter;stroke-opacity:1" />
      <path
         transform="matrix(0.46361029,0,0,0.90005891,255.59313,-116.042)"
         sodipodi:open="true"
         sodipodi:end="6.2716513"
         sodipodi:start="0"
         d="m 127.14286,480.93362 c 0,21.30242 -18.868,38.57143 -42.14286,38.57143 -23.274857,0 -42.142857,-17.26901 -42.142857,-38.57143 0,-21.30241 18.868,-38.57143 42.142857,-38.57143 23.08526,0 41.87379,16.99908 42.14005,38.12656"
         sodipodi:ry="38.57143"
         sodipodi:rx="42.142857"
         sodipodi:cy="480.93362"
         sodipodi:cx="85"
         id="path2997"
         style="opacity:1;fill:#ffffff;fill-opacity:1;stroke:#000000;stroke-width:1.14699996000000000;stroke-miterlimit:4;stroke-opacity:1;stroke-dasharray:none;stroke-dashoffset:0"
         sodipodi:type="arc" />
      <path
         sodipodi:open="true"
         sodipodi:end="6.2716513"
         sodipodi:start="0"
         d="m 274.28573,320.93362 c 0,7.88979 -3.67766,14.28572 -8.21429,14.28572 -4.53662,0 -8.21428,-6.39593 -8.21428,-14.28572 0,-7.88978 3.67766,-14.28571 8.21428,-14.28571 4.49967,0 8.16184,6.29596 8.21374,14.12095"
         sodipodi:ry="14.285714"
         sodipodi:rx="8.2142859"
         sodipodi:cy="320.93362"
         sodipodi:cx="266.07144"
         id="path3017-8"
         style="opacity:1;fill:#000000;fill-opacity:1;stroke:#000000;stroke-width:1.14699996000000000;stroke-miterlimit:4;stroke-opacity:1;stroke-dasharray:none;stroke-dashoffset:0"
         sodipodi:type="arc"
         transform="translate(21.785701,-2.1428706)" />
      <path
         transform="matrix(0.61078724,0,0,0.95036423,202.17873,-139.15212)"
         sodipodi:open="true"
         sodipodi:end="6.2828582"
         sodipodi:start="0"
         d="m 127.14286,480.93362 a 42.142857,38.57143 0 1 1 -1e-5,-0.0126"
         sodipodi:ry="38.57143"
         sodipodi:rx="42.142857"
         sodipodi:cy="480.93362"
         sodipodi:cx="85"
         id="path2997-2"
         style="opacity:0.98000004;fill:#ffffff;fill-opacity:1;stroke:#000000;stroke-width:1.14699996;stroke-miterlimit:4;stroke-opacity:1;stroke-dasharray:none;stroke-dashoffset:0"
         sodipodi:type="arc" />
      <path
         sodipodi:open="true"
         sodipodi:end="6.2716513"
         sodipodi:start="0"
         d="m 274.28573,320.93362 c 0,7.88979 -3.67766,14.28572 -8.21429,14.28572 -4.53662,0 -8.21428,-6.39593 -8.21428,-14.28572 0,-7.88978 3.67766,-14.28571 8.21428,-14.28571 4.49967,0 8.16184,6.29596 8.21374,14.12095"
         sodipodi:ry="14.285714"
         sodipodi:rx="8.2142859"
         sodipodi:cy="320.93362"
         sodipodi:cx="266.07144"
         id="path3017"
         style="opacity:1;fill:#000000;fill-opacity:1;stroke:#000000;stroke-width:1.14699996000000000;stroke-miterlimit:4;stroke-opacity:1;stroke-dasharray:none;stroke-dashoffset:0"
         sodipodi:type="arc" />
    </g>
  </g>
</svg>
